<svg xmlns="http://www.w3.org/2000/svg" width="25.666" height="25.666" viewBox="0 0 25.666 25.666">
  <g id="Icon_ionic-ios-help-circle-outline" data-name="Icon ionic-ios-help-circle-outline" transform="translate(-3.375 -3.375)">
    <path id="Path_60294" data-name="Path 60294" d="M16.208,5.1A11.1,11.1,0,1,1,8.354,8.354,11.032,11.032,0,0,1,16.208,5.1m0-1.728A12.833,12.833,0,1,0,29.041,16.208,12.831,12.831,0,0,0,16.208,3.375Z" fill="#2a6fdb"/>
    <path id="Path_60295" data-name="Path 60295" d="M17.492,11.25c2.314,0,3.905,1.283,3.905,3.128a3.018,3.018,0,0,1-1.734,2.739c-1.074.623-1.438,1.08-1.438,1.869v.487H16.085l-.019-.531a2.568,2.568,0,0,1,1.456-2.715C18.565,15.606,19,15.211,19,14.446a1.5,1.5,0,0,0-1.66-1.326,1.561,1.561,0,0,0-1.653,1.518H13.5C13.543,12.651,15.012,11.25,17.492,11.25ZM15.869,21.825a1.324,1.324,0,1,1,1.32,1.271A1.292,1.292,0,0,1,15.869,21.825Z" transform="translate(-1.241 -0.965)" fill="#2a6fdb"/>
  </g>
</svg>
