<svg xmlns="http://www.w3.org/2000/svg" width="30" height="30" viewBox="0 0 30 30">
  <g id="Group_60694" data-name="Group 60694" transform="translate(-313 -336)">
    <g id="Group_60688" data-name="Group 60688">
      <rect id="Rectangle_6593" data-name="Rectangle 6593" width="30" height="30" rx="4" transform="translate(313 336)" fill="rgba(218,149,12,0.18)"/>
    </g>
    <g id="Group_60693" data-name="Group 60693" transform="translate(-7 -13.762)">
      <g id="Subtraction_4" data-name="Subtraction 4" transform="translate(325 357.762)" fill="rgba(255,255,255,0)" stroke-linecap="round">
        <path d="M 4.666900157928467 9.499899864196777 L 1.000800132751465 9.499899864196777 C 0.7246601581573486 9.499899864196777 0.5000001192092896 9.275239944458008 0.5000001192092896 8.999099731445312 L 0.5000001192092896 0.9998999238014221 C 0.5000001192092896 0.7242499589920044 0.7246601581573486 0.4999999403953552 1.000800132751465 0.4999999403953552 L 15.00030040740967 0.4999999403953552 C 15.27595043182373 0.4999999403953552 15.50020027160645 0.7242499589920044 15.50020027160645 0.9998999238014221 L 15.50020027160645 4.999899864196777 L 6.166800022125244 4.999899864196777 C 5.339750289916992 4.999899864196777 4.666900157928467 5.672749996185303 4.666900157928467 6.499799728393555 L 4.666900157928467 9.499899864196777 Z" stroke="none"/>
        <path d="M 4.166900157928467 8.999899864196777 L 4.166900157928467 6.499799728393555 C 4.166900157928467 5.397049903869629 5.064050197601318 4.499899864196777 6.166800022125244 4.499899864196777 L 15.00022220611572 4.499899864196777 L 15.00030040740967 0.9999999403953552 L 1.00000011920929 0.9998999238014221 L 1.000800132751465 8.999899864196777 L 4.166900157928467 8.999899864196777 M 5.166900157928467 9.999899864196777 L 1.000800132751465 9.999899864196777 C 0.4489601254463196 9.999899864196777 1.358032193365943e-07 9.550939559936523 1.358032193365943e-07 8.999099731445312 L 1.358032193365943e-07 0.9998999238014221 C 1.358032193365943e-07 0.4485499262809753 0.4489601254463196 -6.790160966829717e-08 1.000800132751465 -6.790160966829717e-08 L 15.00030040740967 -6.790160966829717e-08 C 15.55165004730225 -6.790160966829717e-08 16.00020027160645 0.4485499262809753 16.00020027160645 0.9998999238014221 L 16.00020027160645 5.499899864196777 L 6.166800022125244 5.499899864196777 C 5.615449905395508 5.499899864196777 5.166900157928467 5.948450088500977 5.166900157928467 6.499799728393555 L 5.166900157928467 9.999899864196777 Z" stroke="none" fill="#da950c"/>
      </g>
      <g id="Rectangle_6596" data-name="Rectangle 6596" transform="translate(330 362.762)" fill="rgba(255,255,255,0)" stroke="#da950c" stroke-linecap="round" stroke-width="1">
        <rect width="16" height="10" rx="1" stroke="none"/>
        <rect x="0.5" y="0.5" width="15" height="9" rx="0.5" fill="none"/>
      </g>
      <g id="Ellipse_3343" data-name="Ellipse 3343" transform="translate(336 365.762)" fill="rgba(255,255,255,0)" stroke="#da950c" stroke-width="1">
        <circle cx="2" cy="2" r="2" stroke="none"/>
        <circle cx="2" cy="2" r="1.5" fill="none"/>
      </g>
    </g>
  </g>
</svg>
