<svg id="search" xmlns="http://www.w3.org/2000/svg" width="24" height="24" viewBox="0 0 24 24">
  <path id="Path_18010" data-name="Path 18010" d="M24,0H0V24H24Z" fill="none"/>
  <path id="Ellipse_6" data-name="Ellipse 6" d="M7-.75A7.75,7.75,0,1,0,14.75,7,7.759,7.759,0,0,0,7-.75Zm0,14A6.25,6.25,0,1,1,13.25,7,6.257,6.257,0,0,1,7,13.25Z" transform="translate(7 3)" fill="#878f95"/>
  <path id="Line_8" data-name="Line 8" d="M0,6.75a.748.748,0,0,0,.53-.22l6-6a.75.75,0,0,0,0-1.061.75.75,0,0,0-1.061,0l-6,6a.75.75,0,0,0,0,1.061A.748.748,0,0,0,0,6.75Z" transform="translate(3 15)" fill="#878f95"/>
</svg>
