<svg xmlns="http://www.w3.org/2000/svg" width="12.178" height="9.778" viewBox="0 0 12.178 9.778">
  <path id="Icon_awesome-angle-double-left" data-name="Icon awesome-angle-double-left" d="M7.814,11.116l4.154-4.154a.73.73,0,0,1,1.035,0l.69.69a.73.73,0,0,1,0,1.036l-2.942,2.948L13.7,14.58a.73.73,0,0,1,0,1.036l-.69.693a.73.73,0,0,1-1.036,0L7.817,12.155a.731.731,0,0,1,0-1.039ZM1.949,12.155,6.1,16.309a.73.73,0,0,0,1.035,0l.69-.69a.73.73,0,0,0,0-1.036L4.888,11.635,7.832,8.691a.73.73,0,0,0,0-1.035l-.69-.693a.73.73,0,0,0-1.036,0L1.952,11.116A.731.731,0,0,0,1.949,12.155Z" transform="translate(-1.734 -6.746)" fill="#2a6fdb"/>
</svg>
