<svg id="cart_act" xmlns="http://www.w3.org/2000/svg" xmlns:xlink="http://www.w3.org/1999/xlink" width="32" height="32" viewBox="0 0 32 32">
  <defs>
    <linearGradient id="linear-gradient" x1="0.601" y1="0.202" x2="0.472" y2="1.325" gradientUnits="objectBoundingBox">
      <stop offset="0" stop-color="#f5b73c"/>
      <stop offset="0.326" stop-color="#e9a53a"/>
      <stop offset="0.569" stop-color="#e18755"/>
      <stop offset="1" stop-color="#de415c"/>
    </linearGradient>
  </defs>
  <path id="Path_58571" data-name="Path 58571" d="M0,0H32V32H0Z" fill="none"/>
  <g id="Shopping_Cart" data-name="Shopping Cart" transform="translate(4 4)">
    <path id="Path_60257" data-name="Path 60257" d="M28.431,6.872l1.973,7.9,1.234,1.078,8.063-.8L40.857,13.6l1.766-6.724Z" transform="translate(-22.694)" fill="url(#linear-gradient)"/>
    <path id="Path_60249" data-name="Path 60249" d="M0,0H24V24H0Z" fill="none"/>
    <path id="Path_60250" data-name="Path 60250" d="M9.365,16.582A2.762,2.762,0,0,1,6.675,14.4L5.14,7.155a.75.75,0,0,1,.734-.905H18.5a1.75,1.75,0,0,1,1.7,2.175L18.85,13.817a2.757,2.757,0,0,1-2.394,2.069l-6.816.682C9.548,16.577,9.456,16.582,9.365,16.582ZM6.8,7.75l1.343,6.341a1.255,1.255,0,0,0,1.222.991c.042,0,.084,0,.126-.006l6.816-.682a1.253,1.253,0,0,0,1.088-.941l1.348-5.392A.25.25,0,0,0,18.5,7.75Z" fill="#11222e"/>
    <path id="Path_60251" data-name="Path 60251" d="M5.873,7.75a.75.75,0,0,1-.732-.591L4.619,4.75H3.5a.75.75,0,0,1,0-1.5H5.224a.75.75,0,0,1,.733.591l.65,3a.751.751,0,0,1-.734.909Z" fill="#11222e"/>
    <path id="Path_60252" data-name="Path 60252" d="M17.111,20.749A1.117,1.117,0,0,1,16,19.636a1.113,1.113,0,0,1,1.114-1.119,1.116,1.116,0,1,1,0,2.232Z" fill="#11222e"/>
    <path id="Path_60253" data-name="Path 60253" d="M8.7,20.75a1.117,1.117,0,1,1,1.116-1.116A1.108,1.108,0,0,1,8.7,20.75Z" fill="#11222e"/>
  </g>
</svg>
