<svg xmlns="http://www.w3.org/2000/svg" width="32" height="32" viewBox="0 0 32 32">
  <g id="home" transform="translate(-302 -737)">
    <rect id="Rectangle_6232" data-name="Rectangle 6232" width="32" height="32" transform="translate(302 737)" fill="#fff" opacity="0"/>
    <g id="home-house.4" transform="translate(306 741)">
      <path id="Path_60245" data-name="Path 60245" d="M20,21.25H14.5a.75.75,0,0,1-.75-.75V16a1.75,1.75,0,0,0-3.5,0v4.5a.75.75,0,0,1-.75.75H4a.75.75,0,0,1-.75-.75V11.914A2.769,2.769,0,0,1,4.056,9.97l6.707-6.707a1.749,1.749,0,0,1,2.475,0L19.944,9.97a2.769,2.769,0,0,1,.806,1.944V20.5A.75.75,0,0,1,20,21.25Zm-4.75-1.5h4V11.914a1.259,1.259,0,0,0-.366-.884L12.177,4.323a.249.249,0,0,0-.353,0L5.116,11.03a1.259,1.259,0,0,0-.366.884V19.75h4V16a3.25,3.25,0,0,1,6.5,0Z" fill="#6f7a81"/>
      <rect id="Rectangle_6572" data-name="Rectangle 6572" width="24" height="24" fill="none"/>
    </g>
  </g>
</svg>
