<svg xmlns="http://www.w3.org/2000/svg" width="32" height="32" viewBox="0 0 32 32">
  <g id="like_act" transform="translate(-207 -577)">
    <g id="Ellipse_3336" data-name="Ellipse 3336" transform="translate(207 577)" fill="#fff" stroke="#fbeeee" stroke-width="1">
      <circle cx="16" cy="16" r="16" stroke="none"/>
      <circle cx="16" cy="16" r="15.5" fill="none"/>
    </g>
    <g id="heart-syle-2" transform="translate(213 583)">
      <path id="Path_60260" data-name="Path 60260" d="M10.027,16.55l6.328-5.211L17.49,9.282l-.213-2.393L15.327,4.6l-2.18-.425L11.463,4.6l-.975.744-.461.372L8.113,4.6l-2-.142-1.79.532-.656.975c-.035.053-.6,1.134-.6,1.134l-.195,2.18.691,1.9Z" fill="#d25858"/>
      <path id="Path_60247" data-name="Path 60247" d="M13.59,4.25a4.866,4.866,0,0,1,3.473,1.444A4.936,4.936,0,0,1,16.8,12.9l-5.472,4.743a1.456,1.456,0,0,1-1.908,0L3.95,12.9a4.936,4.936,0,0,1-.263-7.208,4.9,4.9,0,0,1,6.683-.245l.005,0,.005,0A4.9,4.9,0,0,1,13.59,4.25Zm-3.215,12.5a.2.2,0,0,0,.135-.05l5.471-4.742a3.686,3.686,0,0,0,.2-5.382A3.648,3.648,0,0,0,11.2,6.393l-.415.36a.625.625,0,0,1-.819,0l-.415-.36a3.648,3.648,0,0,0-4.978.182,3.686,3.686,0,0,0,.2,5.382L10.24,16.7A.2.2,0,0,0,10.375,16.75Z" transform="translate(-0.375 -0.708)" fill="#d25858"/>
      <path id="Path_60248" data-name="Path 60248" d="M0,0H20V20H0Z" fill="none"/>
    </g>
  </g>
</svg>
