<svg xmlns="http://www.w3.org/2000/svg" xmlns:xlink="http://www.w3.org/1999/xlink" width="58" height="58" viewBox="0 0 58 58">
  <defs>
    <filter id="Rectangle_6119" x="0" y="0" width="58" height="58" filterUnits="userSpaceOnUse">
      <feOffset dy="3" input="SourceAlpha"/>
      <feGaussianBlur stdDeviation="3" result="blur"/>
      <feFlood flood-color="#ccc" flood-opacity="0.2"/>
      <feComposite operator="in" in2="blur"/>
      <feComposite in="SourceGraphic"/>
    </filter>
  </defs>
  <g id="menu" transform="translate(-3 -38)">
    <g id="menu-2" data-name="menu">
      <g transform="matrix(1, 0, 0, 1, 3, 38)" filter="url(#Rectangle_6119)">
        <g id="Rectangle_6119-2" data-name="Rectangle 6119" transform="translate(9 6)" fill="#fff" stroke="#f3f4f5" stroke-width="1" opacity="0">
          <rect width="40" height="40" rx="20" stroke="none"/>
          <rect x="0.5" y="0.5" width="39" height="39" rx="19.5" fill="none"/>
        </g>
      </g>
      <g id="Icon_ionic-ios-notifications" data-name="Icon ionic-ios-notifications" transform="translate(17.077 49.861)">
        <path id="Path_60320" data-name="Path 60320" d="M17.064,31.041a2.406,2.406,0,0,0,2.455-2.7H14.6A2.407,2.407,0,0,0,17.064,31.041Z" transform="translate(-2.151 -6.692)" fill="#11222e"/>
        <path id="Path_60321" data-name="Path 60321" d="M22.879,19.051c-.786-1.036-2.332-1.643-2.332-6.282,0-4.761-2.1-6.675-4.062-7.134-.184-.046-.316-.107-.316-.3V5.186a1.245,1.245,0,1,0-2.49,0v.148c0,.189-.133.255-.316.3C11.4,6.1,9.3,8.008,9.3,12.769c0,4.639-1.546,5.241-2.332,6.282a1.013,1.013,0,0,0,.811,1.623H22.073A1.013,1.013,0,0,0,22.879,19.051Z" transform="translate(0 0)" fill="#11222e"/>
      </g>
    </g>
  </g>
</svg>
