<svg id="offer" xmlns="http://www.w3.org/2000/svg" width="32" height="32" viewBox="0 0 32 32">
  <path id="Path_58571" data-name="Path 58571" d="M0,0H32V32H0Z" fill="none"/>
  <g id="Group_15349" data-name="Group 15349" transform="translate(4.001 4.134)">
    <path id="Path_60257" data-name="Path 60257" d="M12.361,1.983a.75.75,0,0,1,.6.3,7.491,7.491,0,0,0,2.726,2.253l0,0A9,9,0,1,1,5.5,6.53a.75.75,0,0,1,1.152.082,7.567,7.567,0,0,0,1.7,1.713,9.7,9.7,0,0,1,3.54-6.176A.75.75,0,0,1,12.361,1.983ZM15.01,5.876a9,9,0,0,1-2.738-2.069,8.205,8.205,0,0,0-2.523,5.8.75.75,0,0,1-1.092.656A9.08,9.08,0,0,1,6.019,8.224,7.5,7.5,0,1,0,15.056,5.9Z" fill="#6f7a81"/>
    <path id="Path_60258" data-name="Path 60258" d="M12,18.75h0a4.5,4.5,0,0,1-4.276-5.905.75.75,0,0,1,1.158-.369,5.2,5.2,0,0,0,1.135.638,6.76,6.76,0,0,1,1.977-3.14.75.75,0,0,1,.6-.184A4.5,4.5,0,0,1,12,18.75ZM9,14.3a3,3,0,1,0,3.734-2.958,5.255,5.255,0,0,0-1.424,2.852.75.75,0,0,1-.919.614A6.706,6.706,0,0,1,9,14.3Z" fill="#6f7a81"/>
  </g>
</svg>
