<svg id="offer_act" xmlns="http://www.w3.org/2000/svg" xmlns:xlink="http://www.w3.org/1999/xlink" width="32" height="32" viewBox="0 0 32 32">
  <defs>
    <linearGradient id="linear-gradient" x1="0.5" y1="-0.011" x2="0.405" y2="1" gradientUnits="objectBoundingBox">
      <stop offset="0" stop-color="#f5b73c"/>
      <stop offset="0.326" stop-color="#e9a53a"/>
      <stop offset="0.569" stop-color="#e18755"/>
      <stop offset="1" stop-color="#de415c"/>
    </linearGradient>
    <linearGradient id="linear-gradient-2" x1="0.601" y1="0.202" x2="0.5" y2="1.081" gradientUnits="objectBoundingBox">
      <stop offset="0" stop-color="#f3daa6"/>
      <stop offset="0.326" stop-color="#e3ba86"/>
      <stop offset="0.569" stop-color="#dc975a"/>
      <stop offset="1" stop-color="#ce7b50"/>
    </linearGradient>
  </defs>
  <path id="Path_58571" data-name="Path 58571" d="M0,0H32V32H0Z" fill="none"/>
  <g id="Group_15349" data-name="Group 15349" transform="translate(4.001 4.134)">
    <path id="Path_60255" data-name="Path 60255" d="M36.9,20.668s3.521-.637,4.662-3.22,3.052-6.238-.268-9.357-5.936-3.656-6-4.494S32.973,5.508,32.6,8.091s-1.073,1.543-1.073,1.543-2.884-2.851-3.119-2.079S25.964,10.07,27.171,15.6,36.9,20.668,36.9,20.668Z" transform="translate(-22.694 -0.134)" fill="url(#linear-gradient)"/>
    <path id="Path_60256" data-name="Path 60256" d="M31.6,11.616a5.453,5.453,0,0,0,2.085-2.078c.541-1.225,1.575-2.41,0-3.89s-2.817-1.735-2.848-2.132-1.1.907-1.273,2.132-.509.732-.509.732-2.086.089-2.2.455-.444-.248.129,2.378S31.6,11.616,31.6,11.616Z" transform="translate(-18.402 6.735)" opacity="0.4" fill="url(#linear-gradient-2)"/>
    <path id="Path_60258" data-name="Path 60258" d="M12,18.75h0a4.5,4.5,0,0,1-4.276-5.905.75.75,0,0,1,1.158-.369,5.2,5.2,0,0,0,1.135.638,6.76,6.76,0,0,1,1.977-3.14.75.75,0,0,1,.6-.184A4.5,4.5,0,0,1,12,18.75ZM9,14.3a3,3,0,1,0,3.734-2.958,5.255,5.255,0,0,0-1.424,2.852.75.75,0,0,1-.919.614A6.706,6.706,0,0,1,9,14.3Z" fill="#11222e"/>
    <path id="Path_60257" data-name="Path 60257" d="M12.361,1.983a.75.75,0,0,1,.6.3,7.491,7.491,0,0,0,2.726,2.253l0,0A9,9,0,1,1,5.5,6.53a.75.75,0,0,1,1.152.082,7.567,7.567,0,0,0,1.7,1.713,9.7,9.7,0,0,1,3.54-6.176A.75.75,0,0,1,12.361,1.983ZM15.01,5.876a9,9,0,0,1-2.738-2.069,8.205,8.205,0,0,0-2.523,5.8.75.75,0,0,1-1.092.656A9.08,9.08,0,0,1,6.019,8.224,7.5,7.5,0,1,0,15.056,5.9Z" fill="#11222e"/>
  </g>
</svg>
